<?xml version="1.0" standalone="no"?><!-- Generator: Gravit.io --><svg xmlns="http://www.w3.org/2000/svg" xmlns:xlink="http://www.w3.org/1999/xlink" style="isolation:isolate" viewBox="0 0 50 50" width="50" height="50"><defs><clipPath id="_clipPath_UKbTY3XqcynZ3Lx3my3M9yRtNtqoqHXa"><rect width="50" height="50"/></clipPath></defs><g clip-path="url(#_clipPath_UKbTY3XqcynZ3Lx3my3M9yRtNtqoqHXa)"><path d="M 10.668 2 L 39.332 2 C 45.606 2 50.701 7.094 50.701 13.369 L 50.701 36.631 C 50.701 42.906 45.606 48 39.332 48 L 10.668 48 C 4.394 48 -0.701 42.906 -0.701 36.631 L -0.701 13.369 C -0.701 7.094 4.394 2 10.668 2 Z" style="stroke:none;fill:#2E2E2E;stroke-miterlimit:10;"/><ellipse vector-effect="non-scaling-stroke" cx="33.918751126174186" cy="12.768893409967916" rx="5.250000000000055" ry="2.993644179198638" fill="rgb(46,46,46)"/><path d=" M 14.831 7.275 L 14.831 7.275 C 14.831 14.174 19.536 19.775 25.331 19.775 C 31.126 19.775 35.831 14.174 35.831 7.275 L 35.831 7.275 L 14.831 7.275 Z " fill-rule="evenodd" fill="none"/></g></svg>