<?xml version="1.0" standalone="no"?><!-- Generator: Gravit.io --><svg xmlns="http://www.w3.org/2000/svg" xmlns:xlink="http://www.w3.org/1999/xlink" style="isolation:isolate" viewBox="0 0 50 50" width="50" height="50"><defs><clipPath id="_clipPath_r9Z0ck1k2kgrVbwnl4sNzq62oSiTPUTL"><rect width="50" height="50"/></clipPath></defs><g clip-path="url(#_clipPath_r9Z0ck1k2kgrVbwnl4sNzq62oSiTPUTL)"><path d="M 10.668 2 L 39.332 2 C 45.606 2 50.701 7.094 50.701 13.369 L 50.701 36.631 C 50.701 42.906 45.606 48 39.332 48 L 10.668 48 C 4.394 48 -0.701 42.906 -0.701 36.631 L -0.701 13.369 C -0.701 7.094 4.394 2 10.668 2 Z" style="stroke:none;fill:#2E2E2E;stroke-miterlimit:10;"/><g transform="matrix(2.57,0,0,2.57,2.637,20.775)"><text transform="matrix(1,0,0,1,0,8.028)" style="font-family:'Gilda Display';font-weight:400;font-size:9px;font-style:normal;fill:#FFFFFF;stroke:none;">BnB</text></g><ellipse vector-effect="non-scaling-stroke" cx="33.918751126174186" cy="12.768893409967916" rx="5.250000000000055" ry="2.993644179198638" fill="rgb(46,46,46)" stroke-width="1" stroke="rgb(255,255,255)" stroke-linejoin="miter" stroke-linecap="square" stroke-miterlimit="3"/><path d=" M 14.831 7.275 L 14.831 7.275 C 14.831 14.174 19.536 19.775 25.331 19.775 C 31.126 19.775 35.831 14.174 35.831 7.275 L 35.831 7.275 L 14.831 7.275 Z " fill-rule="evenodd" fill="rgb(255,255,255)"/><path d="M 15.941 17.775 L 34.721 17.775 C 35.334 17.775 35.831 18.273 35.831 18.885 L 35.831 19.665 C 35.831 20.278 35.334 20.775 34.721 20.775 L 15.941 20.775 C 15.329 20.775 14.831 20.278 14.831 19.665 L 14.831 18.885 C 14.831 18.273 15.329 17.775 15.941 17.775 Z" style="stroke:none;fill:#FFFFFF;stroke-miterlimit:10;"/></g></svg>