<?xml version="1.0" standalone="no"?><!-- Generator: Gravit.io --><svg xmlns="http://www.w3.org/2000/svg" xmlns:xlink="http://www.w3.org/1999/xlink" style="isolation:isolate" viewBox="0 0 50 50" width="50" height="50"><defs><clipPath id="_clipPath_hPUbiaeJtuU9645KOAiz0XcksA2h4pn7"><rect width="50" height="50"/></clipPath></defs><g clip-path="url(#_clipPath_hPUbiaeJtuU9645KOAiz0XcksA2h4pn7)"><path d=" M 29.666 45.048 L 40.209 45.048 L 40.209 1.496 L 9.446 1.496 L 9.446 45.048 L 19.988 45.048 L 19.988 38.596 L 29.666 38.596 L 29.666 45.048 Z " fill-rule="evenodd" fill="rgb(46,46,46)"/><rect x="11.52" y="13.248" width="6.913" height="4.839" transform="matrix(1,0,0,1,0,0)" fill="rgb(235,235,235)"/><rect x="11.52" y="4.952" width="6.913" height="4.839" transform="matrix(1,0,0,1,0,0)" fill="rgb(235,235,235)"/><rect x="21.543" y="4.952" width="6.913" height="4.839" transform="matrix(1,0,0,1,0,0)" fill="rgb(235,235,235)"/><rect x="11.52" y="21.543" width="6.913" height="4.839" transform="matrix(1,0,0,1,0,0)" fill="rgb(235,235,235)"/><rect x="11.52" y="29.839" width="6.913" height="4.839" transform="matrix(1,0,0,1,0,0)" fill="rgb(235,235,235)"/><rect x="31.567" y="29.839" width="6.913" height="4.839" transform="matrix(1,0,0,1,0,0)" fill="rgb(235,235,235)"/><rect x="21.543" y="13.248" width="6.913" height="4.839" transform="matrix(1,0,0,1,0,0)" fill="rgb(235,235,235)"/><rect x="21.543" y="21.543" width="6.913" height="4.839" transform="matrix(1,0,0,1,0,0)" fill="rgb(235,235,235)"/><rect x="31.567" y="21.543" width="6.913" height="4.839" transform="matrix(1,0,0,1,0,0)" fill="rgb(235,235,235)"/><rect x="31.567" y="13.248" width="6.913" height="4.839" transform="matrix(1,0,0,1,0,0)" fill="rgb(235,235,235)"/><rect x="5.125" y="45.739" width="39.75" height="2.765" transform="matrix(1,0,0,1,0,0)" fill="rgb(46,46,46)"/><rect x="21.543" y="29.839" width="6.913" height="4.839" transform="matrix(1,0,0,1,0,0)" fill="rgb(235,235,235)"/><rect x="31.567" y="4.952" width="6.913" height="4.839" transform="matrix(1,0,0,1,0,0)" fill="rgb(235,235,235)"/></g></svg>