<?xml version="1.0" standalone="no"?><!-- Generator: Gravit.io --><svg xmlns="http://www.w3.org/2000/svg" xmlns:xlink="http://www.w3.org/1999/xlink" style="isolation:isolate" viewBox="887.642 544.08 38.715 50.84" width="38.715" height="50.84"><defs><clipPath id="_clipPath_p5FbX1syQsBHC4nswX12mlfRS8UXajiC"><rect x="887.642" y="544.08" width="38.715" height="50.84"/></clipPath></defs><g clip-path="url(#_clipPath_p5FbX1syQsBHC4nswX12mlfRS8UXajiC)"><path d=" M 907 593.42 L 898.071 587.44 L 889.142 581.46 L 889.142 569.5 L 889.142 557.54 L 898.071 551.56 L 907 545.58 L 915.929 551.56 L 924.858 557.54 L 924.858 569.5 L 924.858 581.46 L 915.929 587.44 L 907 593.42 Z " fill="rgb(101,179,242)" vector-effect="non-scaling-stroke" stroke-width="1" stroke="rgb(255,255,255)" stroke-linejoin="miter" stroke-linecap="square" stroke-miterlimit="3"/><path d=" M 916.306 559.311 L 916.306 580.031 L 919.246 580.766 L 919.246 582.271 L 909.866 582.271 L 909.866 580.766 L 912.806 580.031 L 912.806 570.336 L 900.941 570.336 L 900.941 580.031 L 903.881 580.766 L 903.881 582.271 L 894.501 582.271 L 894.501 580.766 L 897.441 580.031 L 897.441 559.311 L 894.501 558.576 L 894.501 557.071 L 903.881 557.071 L 903.881 558.576 L 900.941 559.311 L 900.941 568.306 L 912.806 568.306 L 912.806 559.311 L 909.866 558.576 L 909.866 557.071 L 919.246 557.071 L 919.246 558.576 L 916.306 559.311 L 916.306 559.311 Z " fill="rgb(255,255,255)"/></g></svg>