<?xml version="1.0" standalone="no"?><!-- Generator: Gravit.io --><svg xmlns="http://www.w3.org/2000/svg" xmlns:xlink="http://www.w3.org/1999/xlink" style="isolation:isolate" viewBox="887.642 544.08 96.715 50.84" width="96.715" height="50.84"><defs><clipPath id="_clipPath_M0YGYCYoHdqHBcxJQen1fnIwiTTIzbUM"><rect x="887.642" y="544.08" width="96.715" height="50.84"/></clipPath></defs><g clip-path="url(#_clipPath_M0YGYCYoHdqHBcxJQen1fnIwiTTIzbUM)"><path d=" M 907 593.42 L 898.071 587.44 L 889.142 581.46 L 889.142 569.5 L 889.142 557.54 L 898.071 551.56 L 907 545.58 L 915.929 551.56 L 924.858 557.54 L 924.858 569.5 L 924.858 581.46 L 915.929 587.44 L 907 593.42 Z " fill="rgb(101,179,242)" vector-effect="non-scaling-stroke" stroke-width="1" stroke="rgb(255,255,255)" stroke-linejoin="miter" stroke-linecap="square" stroke-miterlimit="3"/><path d=" M 916.306 559.311 L 916.306 580.031 L 919.246 580.766 L 919.246 582.271 L 909.866 582.271 L 909.866 580.766 L 912.806 580.031 L 912.806 570.336 L 900.941 570.336 L 900.941 580.031 L 903.881 580.766 L 903.881 582.271 L 894.501 582.271 L 894.501 580.766 L 897.441 580.031 L 897.441 559.311 L 894.501 558.576 L 894.501 557.071 L 903.881 557.071 L 903.881 558.576 L 900.941 559.311 L 900.941 568.306 L 912.806 568.306 L 912.806 559.311 L 909.866 558.576 L 909.866 557.071 L 919.246 557.071 L 919.246 558.576 L 916.306 559.311 L 916.306 559.311 Z " fill="rgb(255,255,255)"/><path d=" M 924.858 557.54 L 982.858 557.54 L 982.858 581.46 L 924.858 581.46 L 924.858 557.54 Z " fill="rgb(101,179,242)" vector-effect="non-scaling-stroke" stroke-width="1" stroke="rgb(255,255,255)" stroke-linejoin="miter" stroke-linecap="square" stroke-miterlimit="3"/><path d=" M 935.446 565.588 L 935.446 572.692 L 936.454 572.944 L 936.454 573.46 L 933.238 573.46 L 933.238 572.944 L 934.246 572.692 L 934.246 569.368 L 930.178 569.368 L 930.178 572.692 L 931.186 572.944 L 931.186 573.46 L 927.97 573.46 L 927.97 572.944 L 928.978 572.692 L 928.978 565.588 L 927.97 565.336 L 927.97 564.82 L 931.186 564.82 L 931.186 565.336 L 930.178 565.588 L 930.178 568.672 L 934.246 568.672 L 934.246 565.588 L 933.238 565.336 L 933.238 564.82 L 936.454 564.82 L 936.454 565.336 L 935.446 565.588 L 935.446 565.588 Z  M 943.462 570.16 L 943.462 570.16 L 943.462 570.16 Q 943.462 570.952 943.228 571.648 L 943.228 571.648 L 943.228 571.648 Q 942.994 572.344 942.574 572.8 L 942.574 572.8 L 942.574 572.8 Q 941.866 573.58 940.486 573.58 L 940.486 573.58 L 940.486 573.58 Q 939.142 573.58 938.434 572.824 L 938.434 572.824 L 938.434 572.824 Q 938.026 572.38 937.804 571.726 L 937.804 571.726 L 937.804 571.726 Q 937.582 571.072 937.582 570.304 L 937.582 570.304 L 937.582 570.304 Q 937.582 569.512 937.81 568.804 L 937.81 568.804 L 937.81 568.804 Q 938.038 568.096 938.47 567.64 L 938.47 567.64 L 938.47 567.64 Q 938.854 567.232 939.358 567.046 L 939.358 567.046 L 939.358 567.046 Q 939.862 566.86 940.534 566.86 L 940.534 566.86 L 940.534 566.86 Q 941.194 566.86 941.722 567.046 L 941.722 567.046 L 941.722 567.046 Q 942.25 567.232 942.61 567.616 L 942.61 567.616 L 942.61 567.616 Q 943.03 568.06 943.246 568.726 L 943.246 568.726 L 943.246 568.726 Q 943.462 569.392 943.462 570.16 Z  M 938.866 570.172 L 938.866 570.172 L 938.866 570.172 Q 938.866 571.612 939.298 572.32 L 939.298 572.32 L 939.298 572.32 Q 939.502 572.632 939.784 572.794 L 939.784 572.794 L 939.784 572.794 Q 940.066 572.956 940.522 572.956 L 940.522 572.956 L 940.522 572.956 Q 941.35 572.956 941.758 572.392 L 941.758 572.392 L 941.758 572.392 Q 941.974 572.08 942.076 571.528 L 942.076 571.528 L 942.076 571.528 Q 942.178 570.976 942.178 570.256 L 942.178 570.256 L 942.178 570.256 Q 942.178 568.828 941.746 568.12 L 941.746 568.12 L 941.746 568.12 Q 941.542 567.808 941.254 567.646 L 941.254 567.646 L 941.254 567.646 Q 940.966 567.484 940.51 567.484 L 940.51 567.484 L 940.51 567.484 Q 939.67 567.484 939.298 568.036 L 939.298 568.036 L 939.298 568.036 Q 938.866 568.708 938.866 570.172 Z  M 945.274 572.74 L 945.274 564.82 L 944.35 564.592 L 944.35 564.1 L 946.438 564.1 L 946.438 572.74 L 947.362 572.968 L 947.362 573.46 L 944.35 573.46 L 944.35 572.968 L 945.274 572.74 L 945.274 572.74 Z  M 949.066 567.7 L 948.142 567.472 L 948.142 566.98 L 950.23 566.98 L 950.23 572.74 L 951.154 572.968 L 951.154 573.46 L 948.142 573.46 L 948.142 572.968 L 949.066 572.74 L 949.066 567.7 L 949.066 567.7 Z  M 948.898 565.048 L 948.898 565.048 L 948.898 565.048 Q 948.898 564.7 949.096 564.496 L 949.096 564.496 L 949.096 564.496 Q 949.294 564.292 949.642 564.292 L 949.642 564.292 L 949.642 564.292 Q 949.99 564.292 950.194 564.496 L 950.194 564.496 L 950.194 564.496 Q 950.398 564.7 950.398 565.048 L 950.398 565.048 L 950.398 565.048 Q 950.398 565.396 950.194 565.594 L 950.194 565.594 L 950.194 565.594 Q 949.99 565.792 949.642 565.792 L 949.642 565.792 L 949.642 565.792 Q 949.294 565.792 949.096 565.594 L 949.096 565.594 L 949.096 565.594 Q 948.898 565.396 948.898 565.048 Z  M 952.006 570.28 L 952.006 570.28 L 952.006 570.28 Q 952.006 569.488 952.21 568.792 L 952.21 568.792 L 952.21 568.792 Q 952.414 568.096 952.822 567.64 L 952.822 567.64 L 952.822 567.64 Q 953.17 567.256 953.644 567.058 L 953.644 567.058 L 953.644 567.058 Q 954.118 566.86 954.754 566.86 L 954.754 566.86 L 954.754 566.86 Q 955.294 566.86 955.726 567.064 L 955.726 567.064 L 955.726 567.064 Q 956.158 567.268 956.506 567.796 L 956.506 567.796 L 956.506 564.82 L 955.582 564.592 L 955.582 564.1 L 957.67 564.1 L 957.67 572.74 L 958.594 572.968 L 958.594 573.46 L 956.734 573.58 L 956.638 572.596 L 956.638 572.596 Q 956.266 573.16 955.798 573.37 L 955.798 573.37 L 955.798 573.37 Q 955.33 573.58 954.754 573.58 L 954.754 573.58 L 954.754 573.58 Q 954.142 573.58 953.65 573.4 L 953.65 573.4 L 953.65 573.4 Q 953.158 573.22 952.834 572.824 L 952.834 572.824 L 952.834 572.824 Q 952.45 572.356 952.228 571.702 L 952.228 571.702 L 952.228 571.702 Q 952.006 571.048 952.006 570.28 Z  M 956.506 570.268 L 956.506 570.268 L 956.506 570.268 Q 956.506 568.792 956.086 568.12 L 956.086 568.12 L 956.086 568.12 Q 955.894 567.808 955.618 567.646 L 955.618 567.646 L 955.618 567.646 Q 955.342 567.484 954.886 567.484 L 954.886 567.484 L 954.886 567.484 Q 954.07 567.484 953.674 568.048 L 953.674 568.048 L 953.674 568.048 Q 953.458 568.36 953.362 568.912 L 953.362 568.912 L 953.362 568.912 Q 953.266 569.464 953.266 570.184 L 953.266 570.184 L 953.266 570.184 Q 953.266 571.624 953.686 572.32 L 953.686 572.32 L 953.686 572.32 Q 953.89 572.632 954.166 572.794 L 954.166 572.794 L 954.166 572.794 Q 954.442 572.956 954.898 572.956 L 954.898 572.956 L 954.898 572.956 Q 955.318 572.956 955.618 572.818 L 955.618 572.818 L 955.618 572.818 Q 955.918 572.68 956.086 572.404 L 956.086 572.404 L 956.086 572.404 Q 956.29 572.068 956.398 571.534 L 956.398 571.534 L 956.398 571.534 Q 956.506 571 956.506 570.268 Z  M 959.35 572.056 L 959.35 572.056 L 959.35 572.056 Q 959.35 571.588 959.56 571.228 L 959.56 571.228 L 959.56 571.228 Q 959.77 570.868 960.226 570.586 L 960.226 570.586 L 960.226 570.586 Q 960.682 570.304 961.402 570.1 L 961.402 570.1 L 961.402 570.1 Q 962.122 569.896 963.13 569.74 L 963.13 569.74 L 963.13 569.74 Q 963.07 569.032 962.992 568.636 L 962.992 568.636 L 962.992 568.636 Q 962.914 568.24 962.782 568 L 962.782 568 L 962.782 568 Q 962.614 567.688 962.314 567.538 L 962.314 567.538 L 962.314 567.538 Q 962.014 567.388 961.666 567.388 L 961.666 567.388 L 961.666 567.388 Q 961.33 567.388 961.06 567.508 L 961.06 567.508 L 961.06 567.508 Q 960.79 567.628 960.694 567.832 L 960.694 567.832 L 960.694 567.832 Q 960.862 567.964 960.94 568.15 L 960.94 568.15 L 960.94 568.15 Q 961.018 568.336 961.018 568.504 L 961.018 568.504 L 961.018 568.504 Q 961.018 568.804 960.82 568.978 L 960.82 568.978 L 960.82 568.978 Q 960.622 569.152 960.334 569.152 L 960.334 569.152 L 960.334 569.152 Q 960.046 569.152 959.86 568.96 L 959.86 568.96 L 959.86 568.96 Q 959.674 568.768 959.674 568.42 L 959.674 568.42 L 959.674 568.42 Q 959.674 568.048 959.878 567.754 L 959.878 567.754 L 959.878 567.754 Q 960.082 567.46 960.412 567.262 L 960.412 567.262 L 960.412 567.262 Q 960.742 567.064 961.156 566.962 L 961.156 566.962 L 961.156 566.962 Q 961.57 566.86 961.978 566.86 L 961.978 566.86 L 961.978 566.86 Q 962.998 566.86 963.586 567.448 L 963.586 567.448 L 963.586 567.448 Q 964.33 568.192 964.33 570.088 L 964.33 570.088 L 964.33 571.828 L 964.33 571.828 Q 964.33 572.428 964.408 572.65 L 964.408 572.65 L 964.408 572.65 Q 964.486 572.872 964.75 572.872 L 964.75 572.872 L 965.29 572.872 L 965.29 573.232 L 965.29 573.232 Q 964.426 573.58 963.946 573.58 L 963.946 573.58 L 963.946 573.58 Q 963.766 573.58 963.646 573.52 L 963.646 573.52 L 963.646 573.52 Q 963.526 573.46 963.454 573.31 L 963.454 573.31 L 963.454 573.31 Q 963.382 573.16 963.352 572.908 L 963.352 572.908 L 963.352 572.908 Q 963.322 572.656 963.322 572.272 L 963.322 572.272 L 963.274 572.272 L 963.274 572.272 Q 962.902 572.884 962.29 573.232 L 962.29 573.232 L 962.29 573.232 Q 961.678 573.58 960.97 573.58 L 960.97 573.58 L 960.97 573.58 Q 960.214 573.58 959.782 573.178 L 959.782 573.178 L 959.782 573.178 Q 959.35 572.776 959.35 572.056 Z  M 961.474 572.884 L 961.474 572.884 L 961.474 572.884 Q 961.81 572.884 962.176 572.71 L 962.176 572.71 L 962.176 572.71 Q 962.542 572.536 962.794 572.224 L 962.794 572.224 L 962.794 572.224 Q 963.166 571.768 963.166 570.88 L 963.166 570.88 L 963.166 570.88 Q 963.166 570.676 963.154 570.478 L 963.154 570.478 L 963.154 570.478 Q 963.142 570.28 963.118 570.1 L 963.118 570.1 L 963.118 570.1 Q 962.386 570.244 961.9 570.4 L 961.9 570.4 L 961.9 570.4 Q 961.414 570.556 961.12 570.754 L 961.12 570.754 L 961.12 570.754 Q 960.826 570.952 960.706 571.21 L 960.706 571.21 L 960.706 571.21 Q 960.586 571.468 960.586 571.804 L 960.586 571.804 L 960.586 571.804 Q 960.586 572.32 960.82 572.602 L 960.82 572.602 L 960.82 572.602 Q 961.054 572.884 961.474 572.884 Z  M 970.258 572.788 L 970.498 571.156 L 971.182 571.156 L 971.182 573.46 L 965.866 573.46 L 965.866 572.788 L 969.802 567.652 L 966.994 567.652 L 966.706 569.224 L 966.022 569.224 L 966.022 566.98 L 971.134 566.98 L 971.134 567.652 L 967.198 572.788 L 970.258 572.788 L 970.258 572.788 Z  M 977.758 570.292 L 973.57 570.292 L 973.57 570.292 Q 973.57 571.168 973.81 571.744 L 973.81 571.744 L 973.81 571.744 Q 974.05 572.308 974.488 572.542 L 974.488 572.542 L 974.488 572.542 Q 974.926 572.776 975.454 572.776 L 975.454 572.776 L 975.454 572.776 Q 976.03 572.776 976.492 572.542 L 976.492 572.542 L 976.492 572.542 Q 976.954 572.308 977.326 571.9 L 977.326 571.9 L 977.71 572.188 L 977.71 572.188 Q 977.494 572.476 977.248 572.728 L 977.248 572.728 L 977.248 572.728 Q 977.002 572.98 976.69 573.172 L 976.69 573.172 L 976.69 573.172 Q 976.378 573.364 975.994 573.472 L 975.994 573.472 L 975.994 573.472 Q 975.61 573.58 975.142 573.58 L 975.142 573.58 L 975.142 573.58 Q 974.314 573.58 973.678 573.226 L 973.678 573.226 L 973.678 573.226 Q 973.042 572.872 972.706 572.188 L 972.706 572.188 L 972.706 572.188 Q 972.526 571.816 972.442 571.366 L 972.442 571.366 L 972.442 571.366 Q 972.358 570.916 972.358 570.388 L 972.358 570.388 L 972.358 570.388 Q 972.358 568.696 973.126 567.778 L 973.126 567.778 L 973.126 567.778 Q 973.894 566.86 975.238 566.86 L 975.238 566.86 L 975.238 566.86 Q 976.474 566.86 977.134 567.622 L 977.134 567.622 L 977.134 567.622 Q 977.794 568.384 977.794 569.728 L 977.794 569.728 L 977.794 569.728 Q 977.794 569.848 977.788 569.95 L 977.788 569.95 L 977.788 569.95 Q 977.782 570.052 977.758 570.292 L 977.758 570.292 L 977.758 570.292 Z  M 975.166 567.508 L 975.166 567.508 L 975.166 567.508 Q 973.726 567.508 973.582 569.704 L 973.582 569.704 L 976.582 569.704 L 976.582 569.308 L 976.582 569.308 Q 976.582 568.444 976.216 567.976 L 976.216 567.976 L 976.216 567.976 Q 975.85 567.508 975.166 567.508 Z " fill-rule="evenodd" fill="rgb(255,255,255)"/></g></svg>